<svg class="svg-icon" style="width: 1em; height: 1em;vertical-align: middle;fill: currentColor;overflow: hidden;" viewBox="0 0 1024 1024" version="1.1" xmlns="http://www.w3.org/2000/svg"><path d="M248.469333 398.592h527.061334v269.482667H248.469333z" fill="#D8D8D8" /><path d="M248.469333 362.666667h527.061334c19.413333 0 35.136 16.085333 35.136 35.925333v269.482667c0 19.84-15.722667 35.925333-35.136 35.925333H248.469333c-19.413333 0-35.136-16.085333-35.136-35.925333V398.592c0-19.84 15.722667-35.925333 35.136-35.925333z m0 35.925333v269.482667h527.061334V398.592H248.469333z m43.925334 35.925333h17.557333c4.864 0 8.789333 3.946667 8.789333 8.789334v18.346666a8.789333 8.789333 0 0 1-8.789333 8.810667h-17.557333a8.789333 8.789333 0 0 1-8.789334-8.789333v-18.346667c0-4.864 3.925333-8.810667 8.789334-8.810667z m0 53.909334h35.136c4.842667 0 8.789333 3.925333 8.789333 8.789333v18.346667a8.789333 8.789333 0 0 1-8.789333 8.789333h-35.136a8.789333 8.789333 0 0 1-8.789334-8.789333v-18.346667c0-4.864 3.925333-8.789333 8.789334-8.789333z m404.074666 0h35.136c4.864 0 8.789333 3.925333 8.789334 8.789333v18.346667a8.789333 8.789333 0 0 1-8.789334 8.789333h-35.136a8.789333 8.789333 0 0 1-8.789333-8.789333v-18.346667c0-4.864 3.946667-8.789333 8.789333-8.789333zM362.666667 434.517333h17.578666c4.842667 0 8.768 3.946667 8.768 8.789334v18.346666a8.789333 8.789333 0 0 1-8.768 8.810667H362.666667a8.789333 8.789333 0 0 1-8.789334-8.789333v-18.346667c0-4.864 3.946667-8.810667 8.789334-8.810667z m35.136 53.909334h17.578666c4.842667 0 8.768 3.925333 8.768 8.789333v18.346667a8.789333 8.789333 0 0 1-8.768 8.789333h-17.578666a8.789333 8.789333 0 0 1-8.789334-8.789333v-18.346667c0-4.864 3.946667-8.789333 8.789334-8.789333z m-105.408 53.888H362.666667c4.842667 0 8.789333 3.925333 8.789333 8.789333v18.346667a8.789333 8.789333 0 0 1-8.789333 8.789333h-70.272a8.789333 8.789333 0 0 1-8.789334-8.789333v-18.346667c0-4.864 3.925333-8.789333 8.789334-8.789333z m368.938666 0h70.272c4.864 0 8.789333 3.925333 8.789334 8.789333v18.346667a8.789333 8.789333 0 0 1-8.789334 8.789333H661.333333a8.789333 8.789333 0 0 1-8.789333-8.789333v-18.346667c0-4.864 3.946667-8.789333 8.789333-8.789333z m-228.394666-107.797334h17.578666c4.842667 0 8.768 3.946667 8.768 8.789334v18.346666a8.789333 8.789333 0 0 1-8.768 8.810667h-17.578666a8.789333 8.789333 0 0 1-8.789334-8.789333v-18.346667c0-4.864 3.946667-8.810667 8.789334-8.810667z m35.136 53.909334h17.578666c4.842667 0 8.768 3.925333 8.768 8.789333v18.346667a8.789333 8.789333 0 0 1-8.768 8.789333h-17.578666a8.789333 8.789333 0 0 1-8.789334-8.789333v-18.346667c0-4.864 3.946667-8.789333 8.789334-8.789333z m-35.136 53.888h17.578666c4.842667 0 8.768 3.925333 8.768 8.789333v18.346667a8.789333 8.789333 0 0 1-8.768 8.789333h-17.578666a8.789333 8.789333 0 0 1-8.789334-8.789333v-18.346667c0-4.864 3.946667-8.789333 8.789334-8.789333z m70.272-107.797334h17.578666c4.842667 0 8.789333 3.946667 8.789334 8.789334v18.346666a8.789333 8.789333 0 0 1-8.789334 8.810667h-17.578666a8.789333 8.789333 0 0 1-8.789334-8.789333v-18.346667c0-4.864 3.946667-8.810667 8.789334-8.810667z m35.136 53.909334h17.578666c4.842667 0 8.789333 3.925333 8.789334 8.789333v18.346667a8.789333 8.789333 0 0 1-8.789334 8.789333h-17.578666a8.789333 8.789333 0 0 1-8.768-8.789333v-18.346667c0-4.864 3.925333-8.789333 8.768-8.789333z m-35.136 53.888h17.578666c4.842667 0 8.789333 3.925333 8.789334 8.789333v18.346667a8.789333 8.789333 0 0 1-8.789334 8.789333h-17.578666a8.789333 8.789333 0 0 1-8.789334-8.789333v-18.346667c0-4.864 3.946667-8.789333 8.789334-8.789333z m105.408-53.888h17.578666c4.842667 0 8.789333 3.925333 8.789334 8.789333v18.346667a8.789333 8.789333 0 0 1-8.789334 8.789333h-17.578666a8.789333 8.789333 0 0 1-8.768-8.789333v-18.346667c0-4.864 3.925333-8.789333 8.768-8.789333z m-35.136 53.888h17.578666c4.842667 0 8.789333 3.925333 8.789334 8.789333v18.346667a8.789333 8.789333 0 0 1-8.789334 8.789333h-17.578666a8.789333 8.789333 0 0 1-8.768-8.789333v-18.346667c0-4.864 3.925333-8.789333 8.768-8.789333z m70.272-107.797334H661.333333c4.842667 0 8.789333 3.946667 8.789334 8.789334v18.346666a8.789333 8.789333 0 0 1-8.789334 8.810667h-17.578666a8.789333 8.789333 0 0 1-8.768-8.789333v-18.346667c0-4.864 3.925333-8.810667 8.768-8.810667z m-70.272 0h17.578666c4.842667 0 8.789333 3.946667 8.789334 8.789334v18.346666a8.789333 8.789333 0 0 1-8.789334 8.810667h-17.578666a8.789333 8.789333 0 0 1-8.768-8.789333v-18.346667c0-4.864 3.925333-8.810667 8.768-8.810667z m140.565333 0h17.557333c4.864 0 8.789333 3.946667 8.789334 8.789334v18.346666a8.789333 8.789333 0 0 1-8.789334 8.810667h-17.557333a8.789333 8.789333 0 0 1-8.789333-8.789333v-18.346667c0-4.864 3.925333-8.810667 8.789333-8.810667z m-325.034667 161.706667h245.973334c9.706667 0 17.557333 7.850667 17.557333 17.557333v0.789334a17.578667 17.578667 0 0 1-17.557333 17.578666h-245.973334a17.578667 17.578667 0 0 1-17.557333-17.578666v-0.789334c0-9.706667 7.850667-17.578667 17.557333-17.578666z m-96.64 0h35.157334c4.842667 0 8.789333 3.925333 8.789333 8.768v18.346667a8.789333 8.789333 0 0 1-8.789333 8.810666h-35.136a8.789333 8.789333 0 0 1-8.789334-8.789333v-18.346667c0-4.864 3.925333-8.810667 8.789334-8.810666z m404.096 0h35.136c4.864 0 8.789333 3.925333 8.789334 8.768v18.346667a8.789333 8.789333 0 0 1-8.789334 8.810666h-35.136a8.789333 8.789333 0 0 1-8.789333-8.789333v-18.346667c0-4.864 3.946667-8.810667 8.789333-8.810666z" fill="#979797" /></svg>